<?xml version="1.0"?>
<svg xmlns="http://www.w3.org/2000/svg" xmlns:xlink="http://www.w3.org/1999/xlink" version="1.1" id="Capa_1" x="0px" y="0px" viewBox="0 0 270.454 270.454" style="enable-background:new 0 0 270.454 270.454;" xml:space="preserve" width="512px" height="512px" class=""><g transform="matrix(0.9994 0 0 0.9994 0.0811158 0.0811158)"><g>
	<path d="M135.224,0c-13.998,0-25.347,11.361-25.347,25.359v84.515H25.356   c-13.998,0-25.353,11.349-25.353,25.353s11.355,25.359,25.353,25.359h84.521v84.521c0,13.986,11.349,25.347,25.347,25.347   c14.01,0,25.359-11.355,25.359-25.347v-84.521h84.515c14.004,0,25.353-11.349,25.353-25.359c0-14.004-11.349-25.353-25.353-25.353   h-84.515V25.359C160.583,11.361,149.234,0,135.224,0z" data-original="#010002" class="active-path" data-old_color="#010002" fill="#FB8102"/>
</g></g> </svg>
